<svg width="1166" height="1280" viewBox="0 0 1166 1280" fill="none" xmlns="http://www.w3.org/2000/svg">
<path d="M579.9 3.29999C541.2 50.7 498.8 120.4 472.7 179.5C438.6 256.9 421.7 328.9 421.6 397.5C421.5 426.5 422.5 433.8 429.5 454.8C437.2 477.6 447.7 496.5 478.3 542.1C489.5 558.8 502.5 578.6 507.2 586C551.3 656 573.7 723.1 581 807C581.6 813.9 582.2 822.4 582.3 826L582.5 832.5L583.2 827C583.6 824 584.4 814.6 585 806.1C589.4 744.8 605.1 687.2 632 633.1C644.7 607.6 653.8 592.6 684.5 546.5C714.1 501.9 717.2 496.9 726 478.8C744.1 441.8 747.8 415 742.4 359C733.2 262.6 692.5 158 624.6 56.5C612.5 38.4 592.1 10.6 585.9 3.79999L582.5 0.0999876L579.9 3.29999Z" fill="white"/>
<path d="M214.5 492.6C212.9 492.8 207.2 493.5 202 494.1C156.8 499.2 111.2 518 76 546C66.4 553.7 48.7 571.5 41.9 580.5C16.2 614.2 2.3 652.6 0.400004 695.4C-0.999996 725.8 4.2 758.1 16 792.6C25.4 820 42.2 845.7 68.8 873.2C103.5 909 140.5 932.8 182.6 946.3C205.6 953.7 226.3 956.5 251 955.7C319.8 953.3 366.4 920.2 379.3 864.6C381.8 853.4 382.3 827.5 380.1 816.5C369.7 763.8 331.2 729.7 285 732.3C271.5 733.1 260.9 735.8 249 741.7C241.1 745.5 238.1 747.8 231 754.9C223.9 762 221.6 765.1 217.8 773C211.2 786.3 209.7 793 209.6 807.5C209.6 816.9 210.1 821.2 211.9 827.5C218.5 851.1 234.8 868.5 257.8 876.6L264.3 878.8L260.5 879.6C252.9 881 243.4 879.4 234.6 875.1C207.1 861.8 188.6 822.6 192.1 784.8C195.3 750.2 216.5 720.9 251 703.5C269.8 694 287.6 690.5 312.5 691.3C342.3 692.3 368.1 699 396.5 713.2C454.9 742.5 491.7 791.1 498.9 848.8C499.4 852.9 500.1 856.4 500.3 856.7C500.6 856.9 502.8 856.1 505.2 854.9C516.9 848.9 540 842.4 556.4 840.4L562.2 839.7L561.5 834.6C557.3 802.6 545.2 754.5 533.3 722.5C511.2 663.2 481.6 616.3 441.9 577.4C394.8 531.4 342.1 505 276.5 494.5C267 492.9 221.8 491.6 214.5 492.6Z" fill="white"/>
<path d="M906 492.6C867 496.9 838.3 504.7 806.8 519.3C752.3 544.7 701.9 591.6 667.9 648.6C639 697.3 619.4 751.5 607.6 816C606.2 823.4 604.8 831.8 604.5 834.6L603.8 839.7L609.6 840.4C626 842.4 649.1 848.9 660.8 854.9C663.2 856.1 665.4 856.9 665.7 856.7C665.9 856.4 666.6 852.9 667.1 848.8C668.7 836 670.1 829.8 674.1 817.6C694.4 755.8 755.2 707 828.7 693.5C842 691 867.3 690.5 879.5 692.3C916.9 698.1 950 721.3 965 752.3C982.6 789 974.6 837 946.1 864.8C934.6 876 918.3 882 905.5 879.6L901.7 878.8L908.2 876.6C931.2 868.5 947.5 851.1 954.1 827.5C955.9 821.2 956.4 816.9 956.4 807.5C956.3 793 954.8 786.3 948.2 773C944.4 765.1 942.1 762 935 754.9C927.9 747.8 924.9 745.5 917 741.7C883.4 725.1 844.9 730.3 818.8 754.8C802.2 770.5 790.8 791.8 785.9 816.5C783.7 827.5 784.2 853.4 786.7 864.6C797.9 912.9 833 943.1 890 953.6C901.7 955.7 929.1 956.5 941.8 955.1C997.6 949 1051.1 920.8 1097.2 873.2C1123.8 845.7 1140.6 820 1150 792.6C1175.5 718.2 1170 650.1 1134.2 595C1125.9 582.2 1120.6 575.6 1109 563.6C1073.1 526.6 1025 503 968 494.4C958.1 492.9 914.5 491.6 906 492.6Z" fill="white"/>
<path d="M550.3 865C499.6 872.7 466 895.7 466 922.8C466 946 493 967.3 534.7 977C555.9 982 588.6 983.5 611.3 980.5C653.7 974.9 686.7 957.8 696.9 936C699 931.5 699.5 929 699.5 922.5C699.5 912.6 696.8 906.2 688.9 897.6C673.4 880.6 647.7 869.6 611.5 864.5C597 862.4 565.7 862.7 550.3 865Z" fill="white"/>
<path d="M520.7 1014C519.8 1038.2 513.5 1074.4 506.3 1097.5C497 1127 478.5 1146 452.5 1152.6C444.5 1154.6 424.3 1155 417.3 1153.3C414.9 1152.7 413 1152.4 413 1152.6C413 1153.7 420.5 1159.7 429.2 1165.6C464.8 1189.6 503.8 1187.4 534.7 1159.6C539.2 1155.5 546.8 1146.3 553.2 1137C554.7 1134.9 554.7 1135.2 553 1139C545.4 1157.1 543.1 1184.8 547.5 1205.5C552.8 1230.6 564.3 1255.8 579.5 1275.7L582.8 1280L585.8 1276.3C595.9 1263.4 607.4 1241.8 612.9 1225.2C618.3 1209.1 620.3 1197.1 620.2 1181.5C620.2 1163.9 618.2 1153.6 611.5 1136.5C611.1 1135.4 612.8 1137.5 615.4 1141.2C629.2 1161.3 647.7 1174.8 669 1180.1C676.1 1181.9 679.3 1182.2 689.5 1181.7C703.1 1181.1 712.3 1178.9 723.1 1173.5C731.7 1169.3 741.8 1162.5 748.5 1156.7L753.5 1152.3L745 1153.7C724.1 1157.2 700.6 1151.4 685.8 1139.1C670.1 1126.2 661.1 1108.5 654.1 1077C647.8 1048.5 645 1028 645 1008.9V997.3L635 999.6C619 1003.2 608.2 1004.1 582 1004.1C556.7 1004.1 542.9 1002.8 528.4 999.2L521.3 997.4L520.7 1014Z" fill="white"/>
</svg>
