<svg width="1280" height="640" viewBox="0 0 1280 640" fill="none" xmlns="http://www.w3.org/2000/svg">
<path d="M506.5 34.7C504.9 34.9 500.1 36 496 37C490.5 38.4 483.3 39 468.5 39.4C449.3 39.9 432.1 41.7 421.5 44.1C410 46.7 401 53.3 399.5 60C399 62.4 398.3 62.7 391.2 63.9C387 64.6 379.8 66.5 375.3 68C365.4 71.4 351 77.3 351.1 78C351.1 78.3 353.9 80.3 357.3 82.5C364.9 87.4 365.3 89.2 360.7 95.4C358.7 97.9 356.9 101.7 356.5 103.9C354.9 113.5 362.3 125.9 372.5 130.6C377.8 133.1 385.9 133.8 390.4 132C392.4 131.3 393 131.4 393 132.4C393 133.2 393.2 134.5 393.5 135.3C394 136.4 391.5 136.8 379.3 137.3C371.2 137.7 358.9 138.6 352 139.5C335.9 141.4 320.5 141.4 307.2 139.4C292.2 137.2 289 135.1 287.4 126.5C286.4 121.2 281.4 116 277.1 116C265.4 116 257.3 132.3 262.9 144.5C267.1 153.8 283.2 164.3 300.5 169.1C311.1 172.1 321 171.9 337.8 168.6C348.3 166.5 353.9 166 365.3 166C375.2 166 381.2 165.5 384.6 164.5C391.2 162.5 392 162.6 392 165.4C392 168.5 390.4 169.7 384.2 171.1C378.4 172.3 376 174.7 376 179.5C376 183.8 378.3 186.6 384.3 189.6C387.2 191.1 391.6 194.2 394.3 196.7C400 202 405.2 204.4 409.4 203.6C411.1 203.3 415.1 201.2 418.4 199C423.6 195.5 424.9 195 430.1 195C433.4 195 436 195.3 436 195.7C436 197.4 430 206.7 426.8 209.9C420.4 216.4 414.7 217.3 400.9 214C386.3 210.6 378.4 210.4 360.5 213.5C351.7 215 343.9 216.5 343.2 216.9C342.4 217.4 344.7 218.7 349.2 220.5C358.3 224 372.1 230.2 371.7 230.6C371.6 230.8 366.8 231.6 361.2 232.4C339.6 235.7 319.8 245.3 302.7 261.1L295.8 267.3L286.2 266.1C262 263 247.9 258.9 230.5 250.2C216.8 243.4 208.8 238.2 198.5 229.6C194.1 225.9 187.4 221.2 183.5 219.2C178.9 216.8 173.8 212.9 168.5 207.5C153.1 192.3 151.3 182.3 161.6 170.1C164.2 166.9 172.3 162.3 179 160.1C184 158.5 196.5 144.4 198.1 138.8C199.9 132 198.7 122.9 194.9 115.2C190.4 105.9 179.2 95 168 88.9C163.3 86.3 159.4 84.4 159.2 84.5C159 84.6 161.8 89.5 165.4 95.4C168.9 101.2 172.4 108.3 173 111.1C174.4 116.8 173.8 123.6 171.5 128C170.1 130.7 169.7 130.8 167.3 129.9C165.8 129.3 162.6 127.2 160.2 125.2C147 114 142.4 112.7 135.2 118C132.9 119.6 130.9 121 130.8 121C130.6 121 130.5 117.1 130.4 112.2C130.3 101 127.8 94.1 120.8 86.5C112.3 77.2 99.4 72.5 84 73.2L76.5 73.5L75.9 77.7C75.6 80.4 75.8 82 76.4 82C79 82 90.1 88.1 94 91.7C98.4 95.6 102.2 100.9 103.4 104.6C103.9 106.3 103.4 106.9 100.3 107.8C93.1 110 86 114.9 82.9 119.7C81.3 122.3 80 125.5 80 126.8C80 128.7 79.6 129.1 78.2 128.5C77.3 128.1 74.5 127.5 72.1 127.2C69.6 126.9 66.1 125.7 64.2 124.4C48.1 113.4 25.2 116.7 10.3 132.2L7.09998 135.5L9.19998 138.8C10.9 141.5 11.7 142 13.4 141.5C20.5 139.2 29 137.9 33.5 138.5C38.7 139.1 48 141.8 48 142.7C48 142.9 46.8 145.2 45.3 147.8C41.6 154 41.4 162.9 44.7 167.6L47 170.8L37.7 171.2C30.3 171.5 27.5 172.1 23.5 174.2C14.4 179 7.19998 188.1 2.69998 200.6L0.0999756 207.7L3.89998 209.8L7.69998 211.9L12.1 207.4C17 202.4 26.4 197.4 32.6 196.4L36.8 195.8L36.7 202.1C36.6 214.1 42 219.7 59.4 225.6C63.3 227 68.8 228.3 71.6 228.6C74.5 229 77.2 229.5 77.8 229.9C78.3 230.2 80 233.4 81.5 236.9C89 255 104.7 270.5 125.3 280.6C129.7 282.8 131 283.9 131 285.7C131 290.4 142.2 314.3 148.8 323.5C153.6 330.4 165.4 343.9 166.1 343.5C166.4 343.3 167.5 339.5 168.5 335C169.5 330.6 170.6 327 170.9 327.1C171.2 327.1 172.9 329.9 174.5 333.3C180.5 345.5 191.5 358.3 202.8 365.8C208.5 369.6 219.5 376 220.4 376C220.7 376 221.1 372.2 221.2 367.5L221.5 359L227.6 366.8C252.6 398.3 274.5 415.6 292.1 417.7C296.3 418.2 297.3 418.8 298.5 421.1C300 423.8 299.9 424 295.7 427.3C285 436.1 235.8 462 220.4 467.1C207.4 471.3 192.9 472.3 189 469.2C183.3 464.7 180 452.6 183 447.1C183.6 445.9 184.2 439.2 184.3 431.7C184.5 419.1 184.4 418.2 181.7 412.9C175.9 400.9 161.3 391.2 147.8 390.2C141.1 389.7 124 392.4 124 393.9C124 394.2 129.6 397.3 136.4 400.8C151.4 408.3 155 411.4 155 416.4C155 419.5 154.5 420.2 150.8 422.4C148.4 423.7 144.7 425.4 142.5 426.1C140.4 426.9 136.3 429.8 133.5 432.5C125 441 124 441.4 116.3 439.5C107.5 437.3 100.1 438.2 91 442.6C83.7 446.1 72.2 454.2 71.4 456.5C70.8 457.9 73.6 464 74.8 464C75.2 464 77.1 463.5 79 463C84.6 461.3 97.1 460.1 102.3 460.7C106.7 461.2 107.1 461.5 106.5 463.4C103.6 473.2 102.9 479.7 104 485.4C104.6 488.7 105.9 492.4 106.7 493.7C107.6 495 108.1 496.2 107.9 496.3C107.7 496.5 104.4 498.8 100.7 501.4C87.1 510.9 78 527.8 75.7 547.8C75.2 551.6 75.5 552.2 77.3 552.9C83.5 555.2 83.3 555.3 87 548.3C90.8 541 101.5 529.3 106.8 526.6L110.2 524.9L115.6 530.8C120.4 536.2 128.8 541.5 135.2 543.4C136.8 543.9 136.8 544.1 135.3 547.7C134.2 550.2 133.6 554.3 133.6 559.5C133.6 566.3 134.1 568.7 136.8 575C138.6 579.2 140.7 583.5 141.5 584.7C142.9 586.7 143.3 586.8 146.7 585.6L150.4 584.3L150.6 577.8C150.7 574 151.5 569.8 152.5 567.9C154.4 564.2 158.9 559 160.2 559C160.6 559 162.8 561 165 563.4C173.1 572.2 185.7 574.8 195.5 569.8C200.1 567.4 204 563.7 212.5 553.8L215.5 550.3L229.5 549.5C247.3 548.6 260.7 546.7 264.8 544.6C266.5 543.7 269.2 541.4 270.7 539.4C277.2 531 275.2 531.7 286.9 534.5C302 538.2 313.3 540 321.4 540C325.8 540.1 332.5 541.1 339.3 542.9C345.2 544.4 350 545.5 350 545.2C350 545 346.2 540.6 341.5 535.5C336.8 530.4 333 526 333 525.8C333 525.5 337.4 526.6 342.8 528.2C358.4 532.9 370.2 534.3 387 533.6C407.6 532.7 407 533.2 398.6 524.9C394.5 520.8 392.3 518.1 393.5 518.4C398.6 519.8 419.2 521.1 426 520.5C435.2 519.7 445.4 517.6 454 514.9C457.6 513.8 461 512.7 461.7 512.5C462.4 512.3 460.3 509.5 457 506.4C453.7 503.2 451.1 500.5 451.3 500.4C451.5 500.2 455.4 500.7 460.1 501.5C469.9 503.2 484.8 503.4 493.9 501.9C500.7 500.8 521.6 494.4 522.4 493.2C522.6 492.8 519.7 490.2 515.8 487.5L508.7 482.5L513.6 481.7C526.5 479.7 551.1 473.1 553.3 471.1C553.7 470.7 549 465.6 543 459.7C536.4 453.3 532.4 448.8 533.2 448.6C533.9 448.3 539 446.9 544.5 445.5C578.5 436.6 600.4 428.8 622 418C635.3 411.3 637 410.4 675.4 388.3C731.9 355.7 775.9 334.7 802 327.8C807.1 326.5 814.2 325.7 824 325.4L838.5 324.9L831.5 328.6C804.2 343 786.8 364.1 768.9 404.9C764.3 415.4 763.4 418.1 764.8 417.8C765.8 417.5 772.7 413.4 780.3 408.7C787.8 404 794 400.4 794 400.8C794 401.3 792 412.7 789.5 426.2C787 439.8 785 451.1 785 451.4C785 451.9 791.6 455 792.5 455C792.7 455 795.7 451.2 799.1 446.5C802.6 441.8 805.7 438 806 438C806.3 438 806.7 440.6 806.8 443.7C807.1 449.7 809.4 455.6 813.1 460.1C814.7 462.1 815 463.5 814.6 465.8C813.3 471.7 808.3 477.9 801.3 482.3C792.4 488 790.1 488.8 780 489.3C769.7 489.9 760.2 492.8 753.5 497.3C745.8 502.5 742.1 503.4 730.1 502.7C716.6 501.9 712.4 500.7 707.8 496C703.1 491.3 703 488.4 707.2 481C716.4 464.7 716.3 465.1 715.7 460.2C714.1 444.5 701.2 430 684.5 425C680.5 423.8 654 422.1 654 423C654 423.3 658.8 426.9 664.6 431C673.8 437.4 686 448.9 686 451.1C686 451.5 683.4 451.8 680.2 451.7C672.1 451.7 663.4 455.7 657.2 462.5L652.4 467.7L647.5 463.8C644.7 461.6 641.4 459.2 640 458.5C636.4 456.7 625.2 455.5 612.5 455.6C598.8 455.7 593.4 457.6 583.5 465.7L576.6 471.5L586.3 472.6C598.7 474.1 604.3 476.8 608.7 483.4C612.1 488.3 613.3 492.1 614.5 500.2L615.1 504.8L611 505.5C604.9 506.5 595.6 511.6 591.5 516.2C589.4 518.4 586.7 522.6 585.4 525.4C582.7 531.3 580.2 544.7 581.6 546C582.1 546.5 584.1 547.1 586 547.5C589.3 548 589.6 547.8 591.8 544.1C594.5 539.2 599.1 535.6 604.8 533.9L609 532.7L614.5 538.6C617.5 541.8 619.9 544.9 620 545.5C620 546 617.8 555.8 615.2 567.3C612.5 578.7 610.5 588 610.7 588C610.9 588 615.4 584.2 620.5 579.5C630.4 570.6 638.9 565.4 639.8 567.8C640 568.5 641.6 571 643.4 573.3C651.2 583.7 668.9 585.9 680 577.9C683.8 575.1 688 568.7 688 565.5C688 563.3 689.6 563.6 701.6 568.1C728.4 578.2 734 578.8 753.4 573.5C768.8 569.3 784.1 566.6 805 564.5C821 562.8 843.5 559.3 845.8 558.1C846.6 557.6 843.2 555.3 836.8 551.9L826.5 546.5L837.2 545.8C849.5 545.1 859.8 543.1 870.8 539.4C878.8 536.7 894.9 530.2 896.3 529C896.7 528.7 892 526 885.9 523L874.8 517.7L884.2 515C902 510 915.6 503.8 933.7 492.5L941.8 487.4L929.7 486.3C918.8 485.5 908.7 482.9 910.2 481.5C910.5 481.2 914 480 918.1 478.9C929.7 475.7 938.5 470.5 946.8 462.1C950.8 458 954.5 453.9 955.1 452.9C956 451.1 955.6 451 949.3 451C934.3 451 921.3 446.8 913.2 439.6C898 425.9 904 405 928.8 385L937.5 378.1L941 382.3C956.1 400.8 976.2 417.8 995.1 428.3C1000.4 431.3 1033 445 1034.7 445C1035.1 445 1034.4 436.4 1033.4 430.2L1032.9 426.8L1037.4 429.9C1051.7 439.8 1070.9 446.1 1087.2 446.4C1092.6 446.4 1097 446.2 1097 445.9C1097 445.6 1093.8 441.6 1089.9 437.1L1082.9 429H1091.7C1109 429 1136.2 424.9 1156.8 419.1C1162.7 417.5 1169.2 415.8 1171.2 415.5L1174.9 414.8L1182.3 430.2C1194.1 454.2 1196.2 463.5 1194.1 480.9C1192.7 492.5 1189.4 501.5 1186.5 501.5C1183.5 501.5 1178.4 494 1177.5 488.3C1176.2 479.1 1171.2 465.5 1167.8 461.7C1164.4 457.8 1163.3 457.5 1151.8 456.3C1141.9 455.4 1128.1 461.5 1116.9 471.8L1111.6 476.7L1113.9 480.3C1115.9 483.5 1116.4 483.8 1118.6 483C1120 482.4 1123.7 482 1126.9 482H1132.7L1133.3 489.5C1133.7 494.5 1134.7 498.9 1136.4 502.7C1138.3 506.6 1138.7 508.6 1137.9 509.1C1136.7 509.8 1132.7 511.1 1123.9 513.5C1117.1 515.3 1107.2 521.7 1103 526.9C1094.4 537.9 1092.8 548.7 1098 561.7C1102.6 573.2 1102.4 573.1 1105.5 564.3C1108.4 556.1 1110.9 551.7 1114.4 548.7C1116.8 546.7 1124.1 542.7 1124.5 543.2C1124.6 543.4 1125.3 544.6 1125.9 545.8C1128.1 550 1134.2 556.1 1138.4 558.3C1141.2 559.7 1144.4 560.4 1148.6 560.4L1154.8 560.5L1154.3 568C1153.9 573.5 1154.2 577.3 1155.4 581.5C1157.3 587.9 1163.5 599.3 1166.8 602.3C1168.7 604 1168.9 604 1172.4 602.3C1175 601.1 1175.9 600.2 1175.4 599.1C1175 598.2 1174.5 593.4 1174.3 588.5C1173.9 580.3 1174 579.2 1176.2 576.1C1177.5 574.2 1179.9 571.8 1181.6 570.8C1184.7 569 1184.9 569 1188.4 571.1C1195.7 575.4 1205.4 571.6 1216.8 560C1219.8 556.9 1222.5 555 1223.4 555.3C1224.2 555.6 1225.2 558.9 1226 564.1C1226.6 568.7 1227.8 573.6 1228.6 575.1C1230.4 578.7 1237.4 584.6 1243.3 587.6C1247.1 589.5 1262.7 596 1263.6 596C1263.7 596 1261.4 591.3 1258.5 585.5C1255.1 578.9 1252.5 572.1 1251.5 567.2C1250.6 563 1249.6 558.7 1249.3 557.7C1248.9 556.3 1249.5 556 1253 556C1258.4 556 1263.9 553.1 1268.5 547.8C1277.6 537.4 1278.4 527.3 1271.2 517C1268.8 513.6 1267 510 1267 508.4C1267 506.9 1268.8 502.8 1271.1 499.3C1278 488.3 1279.3 484.5 1279.4 475C1279.5 463.6 1277.9 458.7 1270.9 449.5C1263.6 439.8 1263.5 438.3 1268.5 417.3C1273.2 397.2 1273.6 392.8 1271.6 385C1269.4 376.4 1267.7 374 1264 374C1261.6 374 1260.4 374.9 1258 378.2L1255 382.3V374.9C1254.9 363 1252.4 344.7 1249.3 334.5C1246.6 325.4 1245.5 323.5 1244.8 326.2C1244.6 326.9 1242.5 331.3 1240.1 336L1235.7 344.5L1233 334C1228.8 317.2 1223.9 305.1 1217.2 295.2L1214.3 290.9L1212.5 300.2C1211.6 305.3 1210.6 310.2 1210.4 311.2C1210.1 312.2 1207.6 308.4 1203.9 301.3C1199.1 292.1 1194.1 283.3 1192.6 281.3C1192.5 281.2 1190.7 281.6 1188.7 282.2C1185.3 283.2 1185 283.7 1185 286.9C1185 296.6 1179.8 308.2 1172 316.1C1162.5 325.7 1153.1 329.3 1137.5 329.2C1115.8 329.2 1093.3 320.2 1060.4 298.5L1044.5 288H1059C1142.7 287.9 1195 259.8 1195 215.2C1195 205.1 1193.5 198.8 1188.5 188.5C1178.8 168.5 1160.8 153.2 1134.5 142.7C1090.6 125.2 1040.5 125.1 945 142.5C867.1 156.6 853.9 157.9 839.7 152.3C829.1 148.1 825 143.6 815.6 125.3C809.7 113.9 803.6 108 791.8 102.2C782.1 97.4 771.4 95 759.8 95C755.2 95 738.8 95.9 723.2 97.1L695 99.3L682.7 93C676 89.6 670.1 86.4 669.7 86C668.4 84.8 669.6 81.8 672.9 78.2L675.9 75L685.7 75.1C691.1 75.1 699 75.5 703.3 75.8C707.5 76.2 711 76.4 711 76.3C711 76.2 706.8 73.3 701.8 69.8C690.2 62.1 680.8 58.9 669.8 58.9C653.2 58.9 646.4 66.6 645.2 86.3C643.7 112 656.1 137 679.7 156.3C704.8 176.6 733.9 188.8 771.6 194.6C780.9 196 789.1 196.5 809 196.4C842.8 196.4 855.8 194.9 920.5 183.5C973.2 174.3 1005.4 169.7 1030.5 167.9C1078.7 164.6 1124.3 175.4 1141.8 194.4C1152.8 206.3 1153.5 217.4 1144 226.9C1129.9 241 1092.6 249.2 1048.5 247.7C1028.7 247 1012.3 245.1 970.8 238.5C914.5 229.6 897.1 228 845 227.3C760.3 226.1 712.2 231.1 611.1 251.5C596 254.5 583.1 257 582.5 257C581.7 257 580.9 252.5 580.1 244.7C579.1 233.6 575.3 212.6 573.4 207.5C572.8 205.7 572.9 205.7 574.2 207C575 207.8 578 211.3 580.7 214.6L585.7 220.8L586.4 210.1C588 184.8 581.6 160.2 566.1 132L559.3 119.5L562.6 115.4C566.6 110.5 570.4 102.6 572.5 94.5C576.2 80 573 69.1 563.7 64.6C560.8 63.2 556.4 61.6 553.8 60.9C549.8 59.9 548.5 58.9 543.3 52.3C536.9 44.1 529.1 37.5 523.3 35.4C519.7 34.1 512.8 33.8 506.5 34.7Z" fill="white"/>
</svg>
