<svg width="1280" height="1174" viewBox="0 0 1280 1174" fill="none" xmlns="http://www.w3.org/2000/svg">
<path d="M631.5 1.59998C621.7 4.99998 615 14.7 615 25.3C615 29 614.6 30.9 614 30.5C613.4 30.1 610.5 29.9 607.6 29.9C588.6 29.9 579.4 52.6 593.2 65.6C596.5 68.7 599 70 602.9 70.9C608.6 72.1 611.5 71.7 617.3 68.8L621 67V79.5V92H604.1H587.3L589.6 87.3C592.7 81.2 592.7 75.7 589.5 69.3C582.2 54.7 561.5 53.8 552.9 67.7C550.9 70.8 550.5 72.8 550.5 79V86.5L546.2 86.1C537.3 85.4 526.6 92.2 522.7 101C518.6 110.1 520.9 121.7 527.9 128.8C532.7 133.5 536.6 135.2 544 135.8L550.5 136.2V143.5C550.5 150 550.8 151.3 553.5 155.2C562.9 168.5 582 167.3 589.3 153.1C592.5 146.6 592.8 141.3 590 135.1C588.9 132.7 588 130.6 588 130.4C588 130.2 595.4 130 604.5 130H621L620.8 153.1L620.5 176.2L612.2 178.6C587.7 185.7 566.8 202.9 554.5 226.3C552.2 230.8 549.2 237.6 548 241.5C546.8 245.3 545.3 249.6 544.8 251C543.3 254.4 542.6 281.6 543.8 286.5C546.3 296.2 549.2 305.3 551.5 310.6C555.3 319.1 564 331.7 571.1 338.9C574.8 342.6 576.6 345 575.5 344.7C574.4 344.4 569 342.9 563.5 341.5C538.9 335 508.9 323.7 484.1 311.9C476.2 308.1 468.6 305 467.2 305C462.6 305 457.4 312.2 454.4 322.7C454.2 323.4 451.5 324.6 448.3 325.5C445.1 326.4 435.2 329.6 426.2 332.5C391.5 344.1 363.9 359.3 342.2 378.6L335.9 384.2L325.2 382.5C308.9 379.9 277.7 379.4 260.1 381.4C228.2 385.1 204.4 392 175.3 406C135.7 425 101.7 455.3 76.2 494.2C72 500.7 66.6 508.5 64.3 511.5C62 514.6 59.4 519.2 58.5 521.8C57.6 524.4 55.3 529.9 53.5 534C36.3 572.5 30.6 599.7 25.6 668.5C24.2 687.2 22.4 706.2 21.5 710.7C18.5 726.7 10.4 750.3 3 765C1.3 768.3 0 771.5 0 772.3C0 773 2.6 774.7 5.8 776C14.9 779.7 38 791 38 791.8C37.9 792.2 35.7 793.5 33 794.8C22.3 799.8 13.1 811.7 11.5 822.5C10.5 828.6 13.2 837.1 17 840.4C22.8 845.2 31.5 844.8 38 839.3C39.7 837.9 42.6 833.5 44.5 829.6C46.8 824.8 49 821.8 51.3 820.2C63.3 812.2 85.4 826.8 113.1 861.2C119.6 869.2 125.4 876.1 126 876.5C126.5 876.8 127 879.7 127 882.8C127 897.2 141.6 914.2 159.7 921C166.8 923.7 176.4 923.9 180.9 921.6C184.1 919.9 184.4 919.9 189.8 922.1C201 926.4 207.1 930.3 212.6 936.3C218.4 942.7 225.8 956.1 228.5 965C232.7 979.2 234.2 995.8 231.6 999.6C230.8 1000.8 229.6 1003.8 228.9 1006.4C226.8 1014.7 231.3 1024 238.1 1025.5C239.7 1025.9 241 1026.5 241 1026.8C241 1027.2 241.7 1031.1 242.4 1035.5C243.2 1039.9 243.5 1043.7 243.1 1044C242.3 1044.6 230 1075 230 1076.5C230 1077 235.3 1082.8 241.7 1089.2L253.5 1101L255 1108.8C256.4 1115.9 256.4 1117.2 254.7 1126.5C253.7 1132 252.8 1139.9 252.8 1144C252.6 1153.5 255.6 1160.6 263.1 1168.5C267.8 1173.5 268.7 1174 272.6 1174H277L274 1168.1C268.3 1157 270.8 1147.5 282.1 1136C321.9 1095.6 453.1 1062.6 596.5 1057C772.6 1050.1 953.4 1086 999.3 1137C1009.6 1148.4 1011.3 1158 1005.5 1172.2C1004.9 1173.7 1005.4 1174 1008.8 1174C1012.4 1174 1013.3 1173.4 1017.5 1168.8C1020.1 1165.9 1023.4 1161.3 1024.8 1158.5C1027.1 1154.2 1027.4 1152.3 1027.5 1144C1027.5 1138.5 1026.7 1130.6 1025.6 1125.3C1023.9 1116.5 1023.8 1115.8 1025.5 1108.3L1027.2 1100.5L1039.3 1089L1051.3 1077.4L1045 1061.5C1041.6 1052.7 1038.3 1045 1037.8 1044.3C1037.2 1043.6 1037.4 1040.1 1038.2 1034.9C1039.4 1027.1 1039.7 1026.6 1043.2 1024.2C1051.5 1018.8 1053.8 1009.2 1049 999.7C1046.7 995 1046.6 994.7 1047.8 985.1C1050.2 966.2 1056 951.3 1066.1 938C1071.4 931 1076.6 927.4 1088.3 922.5L1095 919.7L1099.1 921.5C1118.2 930.1 1153 905.4 1153 883.3C1153 878.2 1153.2 877.8 1163.3 865.3C1187.7 834.8 1205.9 819.7 1219.6 818.3C1227.2 817.5 1231 820.2 1235.5 829.6C1239.3 837.5 1243.1 841.4 1248.9 843.1C1257.5 845.7 1265 841.4 1267.6 832.4C1269.5 825.6 1268.9 820.6 1264.9 812.3C1261.5 805.2 1254.4 798.3 1247 794.8C1244.3 793.5 1242.1 792.2 1242 791.8C1242 791 1265.1 779.7 1274.3 776C1277.4 774.7 1280 773 1280 772.3C1280 771.5 1278.7 768.3 1277 765C1269.6 750.3 1261.5 726.7 1258.5 710.7C1257.6 706.2 1255.8 687.2 1254.4 668.5C1249.4 599.7 1243.7 572.5 1226.5 534C1224.7 529.9 1222.4 524.4 1221.5 521.8C1220.6 519.2 1218 514.6 1215.7 511.5C1213.4 508.5 1208 500.7 1203.8 494.2C1178.4 455.5 1144.8 425.4 1105.5 406.4C1075.8 392.1 1052.2 385.2 1019.9 381.4C1002.3 379.4 971.1 379.9 954.8 382.5L944.1 384.2L937.8 378.6C916.1 359.3 888.5 344.1 853.8 332.5C844.8 329.6 834.9 326.4 831.7 325.5C828.5 324.6 825.8 323.4 825.6 322.7C822.6 312.2 817.4 305 812.7 305C811.4 305 803.8 308.1 795.9 311.9C771.5 323.6 741.2 334.9 716.5 341.5C711 342.9 705.6 344.4 704.5 344.7C703.4 345 705.2 342.6 708.9 338.9C722.6 325 731.7 307.2 736.2 285.5C737.4 279.5 736.7 254.5 735.2 251C734.7 249.6 733.2 245.3 732 241.5C722.7 211.8 697.5 187.2 667.8 178.6L659.5 176.2L659.2 153.1L659 130H675.5C684.6 130 692 130.2 692 130.4C692 130.6 691 132.9 689.9 135.5C688.2 139.2 687.9 141.6 688.3 145.6C690.3 165.1 715.1 171.3 726.5 155.2C729.2 151.3 729.5 150 729.5 143.5V136.2L736 135.8C743.4 135.2 747.3 133.5 752.1 128.8C759.1 121.7 761.3 110 757.3 100.9C753.4 92.2 742.6 85.4 733.8 86.1L729.5 86.5V79C729.5 72.6 729.1 70.9 726.8 67.4C717.9 53.7 697.8 54.8 690.5 69.3C687.3 75.7 687.3 81.2 690.4 87.3L692.7 92H675.9H659V79.5V67L662.8 68.8C668.5 71.7 671.4 72.1 677.1 70.9C681 70 683.5 68.7 686.8 65.6C700.6 52.6 691.4 29.9 672.4 29.9C669.5 29.9 666.6 30.1 666 30.5C665.4 30.9 665 29.3 665 26.2C665 8.19998 648.1 -4.30002 631.5 1.59998ZM497.2 382.7C501 390.8 501.2 391.5 499.5 392.5C495.2 394.9 491 399.4 490 402.5C489.1 405.1 488.1 406.2 485.7 406.8C482.9 407.6 482 407.3 478.8 404.4C474.7 400.8 470 399.5 463.8 400.3C459 400.9 455.4 403.3 452.2 408.1C450.3 410.8 449.2 411.5 446.8 411.3C444.2 411.2 442.1 409.7 442 408C442 407.2 456.9 395.7 465.5 390C475.1 383.5 491.1 374 492.3 374C492.7 374 495 377.9 497.2 382.7ZM797.6 379.3C812.9 388.4 838 406.2 838 408C837.9 411 830.1 412.9 829.2 410.1C829 409.5 827.6 407.5 826.2 405.8C819.9 398.3 808 397.9 800.5 404.9C797.9 407.3 797.1 407.6 794.3 406.9C791.9 406.2 790.9 405.1 790 402.5C789 399.4 784.8 394.9 780.5 392.5C778.8 391.5 779 390.8 782.8 382.7C785 377.9 787.3 374 787.7 374C788.2 374 792.6 376.4 797.6 379.3ZM528.7 466.5C541.5 507.1 558.9 574.7 572.1 636C580 672.5 582.1 683.6 582.5 690.3C582.6 694 583.7 699.4 584.9 702.3C587 707.6 593.4 739 592.5 739.8C592.3 740 589.1 739.1 585.5 737.6C574.3 733.1 565 734.6 560.4 741.5C559.1 743.5 558.8 745.6 559.2 751.8C559.7 759.1 560.8 762.9 568.1 782.5C569.9 787.3 570.4 791.6 571 803.7C571.6 817 572 819.4 574.1 823.6C577.1 829.3 582.2 832.4 589 832.4C595.1 832.4 601.4 828.7 607.5 821.6C611.4 816.9 616 814 619.1 814C621.3 814 615.3 833.6 609.6 845.3C598.7 867.3 585.8 877 568.8 875.8C555 874.8 540.4 864.1 528.9 846.6C525.7 841.7 523 837.3 523 836.9C523 836.5 524.1 835.9 525.5 835.6C529 834.7 534.8 829.4 537.3 824.6C540.3 818.9 540.3 809.1 537.3 803.4C533.1 795.4 525.7 791 516.5 791C506.6 791 499.7 795.4 495.4 804.5C492.6 810.3 492.4 816 494.5 822.1C497.4 830.2 506.2 836.9 514.4 837.2C516.9 837.3 517.7 837.7 517.1 838.4C516.6 839 515 843 513.6 847.3C506.8 867.6 495.4 882.5 481.5 889.1C466.9 896.1 450.5 890.6 433.9 873.4C427.4 866.5 419 855.8 419 854.3C419 853.9 424.4 851.5 431.1 849.1C440.9 845.6 443 844.5 442.5 843.1C440.1 837.2 427 800 427 799.3C427 798.9 436.9 794.9 449 790.6C461.2 786.3 471.3 782.3 471.6 781.9C472 781.1 451.3 723 450.1 721.9C449.8 721.5 439.4 725 427 729.5C411.5 735.2 404.3 737.4 403.8 736.6C402.5 734.6 402.9 731.5 405.6 725C415.8 699.9 433.7 674.1 459.8 646.9L471.8 634.4L465.7 630.5C438.3 613.2 415 590.2 402 568C385.7 540.1 381.8 508.5 391 478.6L393.1 471.8L396.3 472.4C403.6 473.8 438.2 474.2 449.2 473.1C471.7 470.6 494.4 464.7 513.5 456.2C518.5 454 522.9 452.3 523.4 452.4C523.8 452.5 526.2 458.9 528.7 466.5ZM769.5 457.5C783.7 463.4 800.2 468.2 816.5 471.1C827.3 473 833.2 473.4 851.5 473.4C863.6 473.5 876.5 473.2 880.2 472.7L886.9 472L889 478.7C898.2 508.5 894.3 540.1 878 568C865 590.2 841.7 613.2 814.3 630.5L808.2 634.4L820.2 646.9C846.3 674.1 864.2 699.9 874.4 725C877.1 731.5 877.5 734.6 876.2 736.6C875.7 737.4 868.5 735.2 853 729.5C840.6 725 830.2 721.5 829.9 721.9C828.7 723 808 781.1 808.4 781.9C808.7 782.3 818.8 786.3 831 790.6C843.1 794.9 853 798.9 853 799.3C853 800 839.9 837.2 837.5 843.1C837 844.4 839.1 845.5 848.7 849C855.2 851.4 860.8 853.6 861.2 853.9C862.2 854.7 852.2 867.7 845.2 874.8C830.3 890 814.8 895.3 800.9 890.1C787 884.8 773.4 868 766.6 847.9C765.2 843.7 763.8 839.6 763.5 838.9C763.1 837.8 763.8 837.4 766.1 837.2C777.2 836.3 787 825.5 787 814.2C787 805.5 781.2 796.4 773.6 792.9C768.7 790.7 759.3 790.4 754.7 792.3C749.9 794.4 745.2 798.7 742.7 803.4C739.7 809.1 739.7 818.9 742.7 824.6C745.2 829.4 751 834.7 754.5 835.6C755.9 835.9 757 836.7 757 837.2C757 837.8 754.6 842 751.6 846.5C744.4 857.2 733.2 867.8 724.4 872.1C718.1 875.2 716.8 875.5 708.5 875.5C700.7 875.5 698.8 875.1 694.5 872.8C688.9 869.9 681.3 862.8 677.1 856.6C670.8 847.5 663.8 830.7 661.1 818.2C660.3 814.5 660.4 814 662.1 814C665.5 814 668.7 816.2 672.4 821.1C679.3 830 688.1 834.1 695.9 832C705.9 829.3 708.2 824.6 709 804.5C709.6 792.6 710.2 788.3 711.9 783.5C719.7 762.6 721.2 757.3 721.4 750.5C721.5 745 721.1 742.9 719.5 740.6C715.3 734.3 705.5 733.3 694.1 737.9C690.2 739.6 687 740.6 687 740.2C687 736.7 693.6 706.8 695.2 703.2C696.5 700.2 697.5 694.9 698 688.5C700.4 657.8 737.1 507.7 755.6 453.1C755.8 452.4 756.6 452 757.3 452.3C757.9 452.6 763.5 455 769.5 457.5ZM288.9 468.2C286.6 476.3 282.9 499.3 281.5 515.1C280.7 524.7 279.7 548.2 279.4 567.5C278.8 605.4 277.9 619.1 275 631.5C271.1 648.3 262.5 668.5 253.8 681.2C251.7 684.4 249.7 687.6 249.4 688.4C249 689.5 254.5 692.7 270.7 700.9C291.5 711.4 317.6 725.8 329.2 733.3C334.6 736.7 334.7 736.9 338.8 748.1C341.1 754.4 342.6 759.7 342.2 760.1C341.8 760.4 333 763.7 322.5 767.5C312.1 771.2 302.1 774.9 300.3 775.5L297.2 776.8L307 803.7C319 836.8 318.7 835.8 316.8 834.3C316 833.6 313 832.6 310.2 832C300.6 829.9 289.5 835.2 285.1 843.9C277.2 859.6 288.4 878 305.8 878H311.1L310.5 883.7C305 930.5 279.6 952.8 248.5 938C236.6 932.3 220.3 917 218.5 909.8C217.5 905.8 220 904.9 229.1 906.2C245.9 908.5 253.5 905.7 258.7 895.3C260.9 890.7 261.5 888.1 261.5 883C261.5 877.2 261.1 875.9 257.8 870.9C255.7 867.9 250.8 862.3 246.8 858.4C234.5 846.7 227.3 838.3 218 824.4C196.9 793.2 188.1 786 176.5 790.5C166.7 794.2 163.3 802.8 164.5 820.7C165.1 829.6 165 831.1 163.9 830.4C157.5 826.6 142 814.6 142 813.5C142 811 150.1 788.9 155.1 777.6C159.8 767.1 172.1 744.5 179.9 732.4L183.1 727.3L177.6 716.3C137.9 637 135.9 569.1 172 521.2C184.3 504.8 203.9 489.1 223.3 480C241.8 471.3 265.7 465.3 282.2 465.1L289.9 465L288.9 468.2ZM1015.5 467C1052.8 473.4 1087.2 493.5 1108 521.2C1144.1 569.1 1142.1 637 1102.4 716.3L1096.9 727.3L1100.1 732.4C1107.9 744.5 1120.2 767.1 1124.9 777.6C1129.9 788.9 1138 811 1138 813.5C1138 814.6 1122.5 826.6 1116.1 830.4C1115 831.1 1114.9 829.6 1115.5 820.7C1116.7 802.8 1113.3 794.2 1103.5 790.5C1091.9 786 1083.1 793.2 1061.9 824.5C1052.5 838.5 1046.5 845.5 1033.7 858C1024.5 866.8 1019.3 874.2 1018.4 879.8C1016.9 889.1 1022.8 901.7 1030.3 905C1034.8 907.1 1042.3 907.5 1052 906.1C1065.9 904.1 1065.3 911.3 1050.4 924.9C1027.4 946 1005 948.3 988.3 931.3C979.3 922.1 971.6 902.8 969.6 884.2L968.9 878H974.3C991.7 878 1002.8 859.6 994.9 843.9C990.5 835.2 979.4 829.9 969.8 832C967 832.6 964 833.6 963.2 834.3C961.3 835.8 961 836.8 973 803.7L982.8 776.8L979.7 775.5C977.9 774.9 968 771.2 957.5 767.5C947.1 763.7 938.2 760.4 937.8 760.1C937.4 759.7 938.9 754.4 941.2 748.1C945.3 736.9 945.4 736.7 950.8 733.3C962.4 725.8 988.5 711.4 1009.3 700.9C1025.5 692.7 1031 689.5 1030.6 688.4C1030.3 687.6 1028.3 684.4 1026.2 681.2C1017.5 668.5 1008.9 648.3 1005 631.5C1002.1 619.1 1001.2 605.4 1000.6 567.5C1000.3 548.2 999.3 524.7 998.5 515.1C997.1 499.3 993.4 476.3 991.1 468.2L990.1 465H997C1000.7 465 1009.1 465.9 1015.5 467ZM373.4 843.5C377.6 855 381.2 865.1 381.5 865.7C381.8 866.6 385.1 865.8 393.2 862.9C410.1 856.7 408.4 856.5 407.7 864.6C405.1 892.1 390.9 910.3 371.1 911.8C354.4 913 337.1 902.6 321.7 882.3L317 876.1L321.4 872C330 864.1 331.5 852.1 325.2 841.9C323.4 839.1 322.1 836.7 322.2 836.5C324 835.3 364.7 821.4 365.2 821.9C365.6 822.2 369.3 831.9 373.4 843.5ZM939.5 829.9C948.9 833.3 957.1 836.2 957.8 836.5C958.7 836.8 958.4 837.6 956.9 839.1C951.2 844.8 949.3 856.7 952.9 864.5C953.9 866.7 956.6 870.2 958.9 872.3L963.2 876.1L957.4 883.6C946.7 897.7 935.5 906.2 922.7 910.1C896.8 918.1 875.5 898.8 872.3 864.6C871.6 856.5 869.9 856.7 886.8 862.9C894.9 865.8 898.2 866.6 898.5 865.7C907.1 842 914.2 822.4 914.6 821.9C914.8 821.4 916.7 821.7 918.8 822.5C920.8 823.2 930.2 826.6 939.5 829.9Z" fill="white"/>
</svg>
