<svg width="1280" height="1280" viewBox="0 0 1280 1280" fill="none" xmlns="http://www.w3.org/2000/svg">
<path d="M683.5 450.6C502.7 692.8 354.5 891 354.1 891C353.8 891 348.5 889.2 342.5 887.1C273.3 862.7 197 879.7 146.8 930.7C130.7 947.1 119.8 962.2 111 980.5C76.1001 1052.9 90.9001 1139 148 1196C198.8 1246.8 274.4 1264.9 341.9 1242.4C405.8 1221 452.4 1168.1 466.1 1101.4C469 1087 469.8 1056.5 467.6 1040.7C463 1008.2 450.3 977.3 430.9 951.9L425.1 944.3L678 605.4C817.1 419 931.2 266.4 931.7 266.3C932.1 266.1 954.8 282.6 982 303C1009.2 323.3 1031.7 339.7 1032.1 339.2C1035.2 335.7 1068 291.1 1068 290.4C1067.9 289.9 1051.2 277.1 1030.9 262C1010.5 246.9 993.4 233.9 992.8 233.3C991.5 231.7 1010.6 205.6 1012.3 206.7C1013 207.1 1030.2 219.9 1050.7 235.2C1071.2 250.5 1088.1 263 1088.4 263C1089.2 263 1125 215.2 1125 214.1C1125 213.6 1108 200.5 1087.3 185C1066.5 169.5 1049.6 156.3 1049.6 155.6C1049.8 154 1067.8 130 1068.8 130C1069.2 130 1085.5 142 1105 156.6C1124.5 171.2 1141.7 184 1143.1 185.1L1145.8 187L1162.1 165.2C1171 153.3 1179.4 142.1 1180.7 140.4L1183 137.4L1132.7 99.9C1105.1 79.4 1066.7 50.8 1047.3 36.3L1012.1 10.1L683.5 450.6ZM308 935.9C359.4 947.8 398.1 986.9 409.6 1038.5C412.1 1049.8 412.6 1073.8 410.5 1086.1C399.6 1151.6 341.6 1198.2 275.5 1194.7C228.6 1192.2 186.5 1165.3 164.6 1124C147.9 1092.2 144.9 1052.8 156.6 1019.8C169.1 984.7 196.1 956.3 230.3 942.5C239.2 938.8 251.1 935.5 260.5 934C270.3 932.5 298.2 933.6 308 935.9Z" fill="white"/>
</svg>
