<svg width="1280" height="857" viewBox="0 0 1280 857" fill="none" xmlns="http://www.w3.org/2000/svg">
<g clip-path="url(#clip0)">
<path d="M661.5 1.99998C660.2 3.49998 658.5 3.99998 654.8 3.99998C650 3.99998 650 3.99998 650.6 6.69998C651.6 10.8 651.7 10.8 656.8 12.3C661 13.6 661.6 14.1 662.1 17.2C662.6 20.5 662 21.4 649.4 35.5C642.1 43.7 635.6 50.6 634.8 50.9C634.1 51.1 622.4 60.9 608.8 72.7C595.2 84.4 583.6 94 583.1 94C582 94 579 100.3 579 102.6C579 103.4 580.5 104.6 582.4 105.4C587.2 107.4 589.4 112 588.5 117.9C588.1 120.4 587.7 124.3 587.5 126.5C587.3 129.7 586.9 130.4 585.5 130.2C583.5 129.8 580.3 132.5 578.4 136.2C577.6 137.8 576.4 139 575.7 139C575.1 139 573.5 141.6 572.3 144.7C570.3 149.9 570.3 150.6 571.6 153.2C573.9 157.6 573.3 196.4 570.9 200C569.8 201.7 569.4 203.8 569.7 206.6C570.1 210.4 570.5 210.8 574 211.9C583.9 214.8 587.3 222.2 587.4 240.5C587.5 248.9 587.1 252.2 585.9 254.5C584.4 257.1 584.4 257.6 585.7 258.6C586.8 259.3 587.4 262.1 587.8 267.4L588.3 275.1L584.2 273.5C582 272.6 578.7 272 576.8 272.2C573.6 272.5 573.5 272.7 573.2 277.3C572.9 281.2 572.5 282.3 570.5 283.2C567.4 284.6 565 283.6 565 281C565 277 562.3 272.4 559.2 271.1C556.7 270 555.7 270.1 553.2 271.4C550.5 272.8 550.1 273.7 549.5 278.5L548.8 284H544H539.2L538.8 278.4C538.2 271.6 536.3 269.6 531.1 270.4C526.4 271.1 525.9 271.9 525.3 278.9C524.7 284.7 524.6 285 522 285C518.4 285 516.6 282.7 517.3 279.1C518.1 275 516.2 272.8 511.6 272.8C509.5 272.8 507.3 273.3 506.7 273.9C505.6 275 504.7 285.3 504.8 297.9C504.9 305.5 505.1 306.5 507.4 308.9C508.9 310.4 509.8 311.9 509.4 312.2C509.1 312.5 509.6 315 510.5 317.6C511.4 320.2 512 324.6 511.9 327.4C511.8 330.2 512.3 334.4 512.9 336.8C514.1 341.2 514.1 353 512.9 353C512.5 353 510.6 352.3 508.7 351.5C506.7 350.7 504.6 350 504 350C502.1 350 498 360.7 498 365.5C498 369.4 497.6 370.2 495.5 371.2C493.8 372 492.9 373.4 492.5 375.9C492.1 377.9 491.2 381 490.4 382.8C489.4 385.2 489.1 387.9 489.6 392.4C490.2 398.4 490.1 398.6 487.6 399.8C486.2 400.4 485 401.4 485 401.9C485 402.5 483.7 404.4 482.1 406.2C479.3 409.4 479 410 479 412C479 413 471.9 419.9 469.4 421.3C468.4 421.9 466.8 421.2 464.5 419.2C461.3 416.4 460.9 416.3 456.4 417.2C451.7 418.2 451.7 418.2 448.6 414.6C446.8 412.6 443.7 410.5 441.3 409.7L437.2 408.3L432.8 412.3C428.7 416 428.3 416.2 423 415.7C417.8 415.3 417.3 415.5 413.1 419.1C410.7 421.3 408.3 423 407.9 423C407.4 423 406.7 424.5 406.2 426.2C405.2 430 407.1 435.9 410.7 440.3C412.7 442.8 413 444.3 413 451.5V459.8L408.6 463.7C402 469.3 378.6 499.4 373.2 509C371.5 512 369 518.9 367.6 524.2C362.7 542.8 357.5 550.1 341.3 561C328.2 569.8 322.5 575.1 315.3 585.3C309.1 594 310.1 593.2 293.1 604.1C278.4 613.6 272.1 619.8 262.3 634.2C256.6 642.5 252.8 646.8 244.8 653.7C232 664.8 229.4 668.2 224 680.9C220 690.5 214.8 698 212.2 698C210.4 698 208.1 693.7 207.1 688.4C205.6 680.8 195.8 660.9 191.5 656.7C187.3 652.6 178.8 649 173.3 649C168.9 649 161.5 654.2 156.5 660.8C153.6 664.5 153 666.1 153 670.2C153 679.4 149.9 683.4 144.5 681.4C143.2 680.9 143.7 680.2 146.7 678.4C150.2 676.2 150.3 676.1 148 676C144.3 676 139.7 679.2 134.9 685.2C128.8 692.9 127.1 697.3 127.7 704.6L128.2 710.6H133.1C137.8 710.6 140 711.4 138.7 712.6C138.4 712.9 135.6 713.2 132.4 713.1C125.8 713.1 123.7 714 121.7 717.7C116.2 728.2 112.7 732.8 109.8 733.4C106.8 734 106.7 734 108.5 736C110.3 738 110.3 738.1 107.1 741C103.5 744.3 102 744.2 102 740.4C102 738.3 101.5 738 98.2999 738C94.9999 737.9 94.0999 737.4 91.6999 733.9C88.3999 729.2 83.8999 727 77.2999 727C68.1999 727 65.0999 728.5 56.9999 737C52.8999 741.3 47.9999 745.5 46.1999 746.4C39.7999 749.7 24.9999 750 5.8999 747.5C1.3999 746.9 1.2999 746.9 0.699902 749.7C0.399902 751.3 0.0999023 772.3 -9.76548e-05 796.4L-0.100098 840.3L3.9999 844C7.9999 847.7 8.3999 847.7 10.4999 844.1C11.0999 843 10.8999 842.8 9.5999 843.3C8.3999 843.8 7.9999 843.6 8.2999 842.8C8.4999 842 9.9999 841.6 11.7999 841.7C13.4999 841.9 15.1999 841.5 15.4999 841C16.2999 839.7 22.5999 839.7 25.0999 841C26.3999 841.8 26.9999 841.7 26.9999 841C26.9999 840.4 27.4999 840.2 27.9999 840.5C28.5999 840.8 28.9999 841.6 28.9999 842.1C28.9999 842.7 28.4999 842.8 27.9999 842.5C27.3999 842.2 26.6999 842.6 26.3999 843.4C25.8999 844.6 25.3999 844.7 23.8999 843.9C22.5999 843.2 21.3999 843.3 19.8999 844C18.3999 844.8 17.4999 844.8 16.5999 844C15.4999 843.2 15.0999 843.7 14.4999 846.7C14.1999 848.8 12.8999 851.6 11.6999 852.9L9.4999 855.3L13.9999 854.6C18.8999 854 30.3999 848.7 29.3999 847.7C28.9999 847.3 29.8999 846.6 31.3999 846C32.8999 845.5 34.9999 843.5 36.0999 841.6C37.2999 839.5 39.0999 838 40.8999 837.7C45.7999 836.7 50.3999 838.9 46.4999 840.4C45.6999 840.7 44.9999 842.2 44.9999 843.8C44.9999 845.3 44.4999 847.1 43.7999 847.8C42.2999 849.3 46.6999 851 52.2999 851C54.6999 851 57.5999 851.7 58.7999 852.6C60.7999 854 60.9999 854 60.9999 852.6C60.9999 851.7 61.7999 851 62.8999 851C64.0999 851 64.8999 850.1 65.1999 848.5C65.7999 845.7 65.5999 845.6 62.8999 847C61.5999 847.8 60.9999 847.7 60.9999 847C60.9999 846.4 60.5999 846.1 59.9999 846.5C59.4999 846.8 59.2999 847.6 59.5999 848.3C59.8999 849.2 58.9999 849.6 56.4999 849.6C54.2999 849.6 52.9999 849.1 52.9999 848.3C52.9999 847.6 52.3999 847 51.7999 847C51.0999 847 49.6999 846.3 48.6999 845.6C46.9999 844.3 46.9999 844.1 48.7999 840.9C49.7999 839 51.5999 837.4 52.7999 837.2C55.1999 836.8 55.5999 838 53.7999 839.8C53.0999 840.5 52.8999 841 53.2999 841C53.6999 841 54.8999 840.1 55.9999 839C57.3999 837.6 59.2999 837 62.4999 837H66.9999L65.3999 839.5C64.3999 841 64.1999 842 64.8999 842C65.4999 842 65.9999 841.5 65.9999 840.9C65.9999 840.3 66.7999 840.1 67.8999 840.5C69.3999 841 69.6999 840.7 69.2999 839.2C68.7999 837.1 69.9999 836.8 85.4999 835.5C91.9999 834.9 92.5999 835 93.7999 837L95.1999 839.3L88.6999 838.6C81.9999 837.8 79.3999 838.9 81.9999 841.3C82.8999 842.2 83.3999 842.2 83.6999 841.4C84.4999 839.2 87.9999 841.1 87.9999 843.6C87.9999 846.5 89.0999 846.7 91.3999 844.2C92.4999 842.9 94.4999 842.3 97.5999 842.2C102.1 842.2 102.1 842.2 100.3 844.3L98.4999 846.4L102 844.4C111 839.2 112.4 837.4 107 838.2C104.4 838.6 104 838.3 104 836.4C104 833.7 104.7 833.2 111.1 831.5C115.5 830.3 116.1 830.4 116.9 831.8C117.8 833.4 118 833.3 119.3 831.7C120.3 830.2 122.4 829.7 129.3 829.3L138 828.7L139.6 832.6C141.9 838.1 146.2 844 148 843.9C149.2 843.9 149.1 843.7 147.8 842.9C144.6 841.1 145.9 840.3 154.8 838.5C159.6 837.5 166.8 835.6 170.8 834.1C178.4 831.4 178.5 831.2 173.2 828.1C172.3 827.6 172.2 826.7 173.1 824.2C173.7 822.4 174.5 821 174.8 821C176.4 820.8 190 818.9 195 818.1C198 817.6 201.7 816.7 203.1 816.2C204.6 815.6 222.8 810.8 243.6 805.5C264.5 800.2 289.2 793.9 298.5 791.5C307.9 789 319.3 786.3 324 785.4C328.6 784.6 333.2 783.4 334.2 782.9C335.2 782.3 336.1 782.4 336.5 783C337.6 784.8 341 784.1 341 782.1C341 780.7 341.6 780.4 343.4 780.7C344.8 781 347.3 780.5 349 779.7C353.3 777.5 368.8 773.7 370.1 774.5C370.7 774.9 371.7 774.5 372.3 773.6C374.1 771.1 399.8 764.5 401.6 766.1C402.7 767 403 766.9 403 765.6C403 763.2 411.3 759.7 415.6 760.2C417.9 760.5 419 760.2 419 759.3C419 758 424 756.4 432.5 755C435.3 754.5 443.5 752.3 450.6 750C468.5 744.2 471.1 743.5 482.5 740.5C488 739 496 736.3 500.3 734.5C504.6 732.6 520.6 727.2 535.8 722.5C551 717.7 573.6 710.5 586 706.4C612.1 697.7 654.3 685.5 675.6 680.5C683.8 678.6 691.3 676.6 692.2 676C693.3 675.4 694.1 675.4 694.5 676C695.4 677.5 697 677.2 697 675.5C697 673.9 700.5 673.4 701.5 675C702.3 676.3 704.8 675.2 705.2 673.3C705.4 672.2 706.9 671.7 710 671.5C712.5 671.4 718.6 669.8 723.5 668C728.5 666.2 733.6 664.8 734.9 664.9C736.3 664.9 737.9 664.2 738.6 663.1C739.4 662.1 741.6 660.9 743.7 660.5C745.8 660.1 747.9 659.5 748.5 659.2C749 658.8 750.6 658.4 752 658.3C756.6 658 784.5 651.4 786.7 650.2C787.9 649.5 790.5 649 792.5 649C796.2 649 831.5 641.1 849 636.3C856 634.4 859.9 633.9 864.1 634.3C867.3 634.6 870.2 634.4 870.7 633.9C871.8 632.8 875 633.7 875 635C875 636.6 872.9 637.2 871.5 636C870.3 635 870 635.1 870 636.4C870 637.3 870.7 638 871.5 638C872.8 638 878 644.9 878 646.6C878 647 876.5 646.1 874.6 644.7C871 641.9 870 642.1 870 645.6C870 648.7 868.2 649.6 866.2 647.4C865 646.2 864.6 644.4 864.9 641.3C865.1 637.9 864.9 637.1 863.8 637.5C862 638.2 862 644.4 863.8 646.2C864.5 646.9 865 648 865 648.7C865 650.6 871.7 650.4 872.8 648.4C873.6 647 874.2 646.9 877.4 648.1C880.2 649.1 881.3 649.1 882.2 648.2C882.9 647.5 885.3 647 887.7 647C890.1 647 892 646.7 892 646.4C892 646.1 890.9 644.4 889.5 642.6L887 639.3L890.9 638.6C894.1 638.1 895.8 636.9 899.6 632.6C903.9 627.8 904.6 627.3 906.7 628.3C908.3 629 909.3 629 910.4 628.1C911.5 627.2 911.9 627.2 912.3 628.2C912.6 629.2 913.2 629.1 914.7 627.7C916.1 626.5 918.3 626 922.2 626H927.7L929.6 631.3C931.4 636.2 931.7 636.5 935.6 637.1C937.9 637.4 940.5 638.4 941.5 639.4C942.5 640.4 943.9 640.8 944.9 640.4C945.8 640.1 948.4 639.5 950.7 639.3C953.1 639 955.5 638.1 956.1 637.4C957.4 635.8 960.6 635.6 961.5 637C961.8 637.5 963.2 638 964.6 638C966.7 638 967 637.7 966.4 635.5C965.6 632.3 967 632.3 970 635.5C972.1 637.7 973.2 638 979.6 638C986.2 638 986.8 637.8 987.4 635.7C988.2 632.5 988.2 632 986.6 632C985.9 632 983.6 630.5 981.6 628.6L978 625.1L980.2 623.6C981.4 622.7 983.3 622.2 984.4 622.4C985.6 622.7 989.8 623.4 993.9 624.1C999.6 625.1 1001.4 625.8 1001.8 627.2C1002.2 628.7 1002.9 629 1005 628.5C1006.6 628.2 1008.1 628.4 1008.5 628.9C1009.7 630.9 1010.7 630 1011.6 626.1C1012.4 622.5 1012.7 622.2 1014.3 623.5C1015.8 624.6 1016 625.2 1015 627C1014 628.9 1014 629.1 1015.7 628.6C1017.3 628.1 1017.6 628.6 1017.8 632.7C1017.9 635.2 1018.2 638.2 1018.6 639.2C1019.3 641.6 1024.1 644 1026.7 643.4C1027.8 643.1 1029.2 643.5 1029.9 644.4C1031.4 646.1 1034 646.6 1034 645.1C1034 643.2 1038.2 642.8 1039.9 644.4C1041.3 645.9 1041.3 646.2 1040 647.1C1039.2 647.6 1037.5 647.9 1036.3 647.7C1032.8 647.1 1034.6 648.7 1039.5 650.5C1043.2 652 1044.7 652.1 1048.4 651.1C1050.9 650.5 1054 650 1055.4 650C1058.2 650 1058.7 649.1 1056.8 647.2C1055.9 646.3 1056.2 645.4 1058.4 643.1C1060.6 640.8 1061 639.8 1060.1 638.3C1059.3 636.7 1059.6 635.9 1062.1 633.7C1064.6 631.5 1065.2 631.4 1065.7 632.6C1066 633.5 1065.8 635.7 1065.2 637.6C1064.1 641.3 1064.2 641.3 1069.8 639.3C1070.4 639 1071 639.4 1071 640.2C1071 641 1072.5 643 1074.3 644.8L1077.6 648H1107.5C1124 648 1141.6 648.5 1146.5 649C1157 650.2 1181 655.9 1190.2 659.3C1197.5 662.1 1240.1 683.3 1244.2 686.2C1245.7 687.2 1250.7 689.4 1255.2 691C1259.8 692.5 1266.3 695 1269.7 696.4C1276.9 699.4 1278 699.5 1278 697.5C1278 696.7 1278.5 696 1279 696C1280.8 696 1280.2 688.2 1278.3 687.1C1276.6 686.2 1276.6 686.1 1278.2 685.5C1279.8 684.8 1280 677.2 1280 559.4V434H1276.7C1275 434 1269.5 433.3 1264.5 432.5C1259.6 431.7 1250.5 431 1244.5 431H1233.4L1226 426.5C1221.9 424.1 1218.5 421.5 1218.4 420.8C1217.9 411.5 1208.2 399.3 1199.6 397.1C1197.1 396.5 1195 395.6 1195 395.1C1195 394.6 1194.7 393.5 1194.4 392.6C1194 391.5 1194.4 391 1195.9 391C1197.8 391 1197.8 390.7 1194.9 384.2C1193.2 380.5 1190.7 373.7 1189.3 369C1186 357.9 1182.8 352 1180.1 352C1179 352 1174.3 362.7 1173.5 367.1C1173.1 369 1171.8 372.4 1170.6 374.6C1168.2 378.8 1167.8 378.9 1157.4 377.5C1152.3 376.8 1152.1 376.4 1151.1 361.1C1150.3 350.3 1150.1 349.5 1147.5 347.3C1145.6 345.6 1143.8 345 1141.7 345.2C1139 345.5 1138.3 346.1 1137 349.9C1136.2 352.3 1135 354.5 1134.4 354.7C1132.6 355.3 1130 352.1 1130 349.4C1130 347.2 1129.6 347 1124.7 347C1120.1 347 1119.1 347.4 1116.8 350C1115.4 351.6 1113.8 353 1113.2 353C1112.7 353 1111.5 351.2 1110.5 349.1L1108.8 345.2L1100.1 344.6C1085.7 343.5 1086 343.6 1086 338.1C1086 334 1085.7 333.2 1083.5 332.2C1082.1 331.5 1079.3 331 1077.4 331C1074.5 331 1073.6 331.6 1071.9 334.5C1070.7 336.4 1069.6 338 1069.4 338C1069.2 338 1067.9 336.2 1066.5 333.9C1064 330 1063.8 329.9 1058.7 330.2C1053.7 330.5 1053.5 330.6 1053.2 333.7C1052.6 340 1047 340.3 1047 334C1047 331.4 1046.7 331.2 1041.3 330.6C1037.4 330.1 1035.4 330.3 1035.2 331C1035 331.6 1033.8 333.3 1032.6 334.7C1030.6 337 1030 337.2 1027.4 336.3L1024.5 335.3L1024.2 324.4C1024 318.4 1024.2 309.7 1024.5 305.1C1025.1 298.1 1025.5 296.7 1027.1 296.3C1028.5 295.9 1029 294.9 1029 292.5C1029 289.8 1027.9 288.1 1023.5 283.5C1019.5 279.5 1017.6 276.6 1016.7 273.3C1016 270.7 1014.7 268.4 1013.5 267.8C1006.7 264.3 1005.1 259.1 1007.2 247C1008.3 240.4 1008.8 239.5 1010.8 239.2C1012.4 238.9 1012.9 238.3 1012.6 237.2C1012.3 236.3 1011.8 234.3 1011.4 232.8C1011.1 231.3 1009.9 229.8 1008.7 229.4C1007.5 229 1004.3 226.4 1001.5 223.6C998.8 220.8 993.8 216.4 990.5 213.8C987.2 211.2 983.6 207.6 982.6 205.8C981.5 204 978.5 200 976 197C973.4 194 969 188.1 966.2 183.8C959.9 174.5 947.4 160.7 944.3 159.8C942.4 159.3 941.5 159.8 939.7 162.3C931.1 174.2 929 176.7 926.7 177.9C925.2 178.7 923.7 179.1 923.4 178.7C921.9 177.3 922.6 167.3 924.4 163.2L926.3 159L923.2 152.8C919.5 145.2 913.5 138 911 138C910 138 908.1 139.2 906.7 140.7C905.4 142.3 902.1 145.8 899.5 148.7C895 153.7 894.8 154.2 895.4 158.2C896.9 168 898.1 200.6 897.2 203.1C896.1 206 892.3 207.4 881.5 209C867.3 211 836.4 209.8 827.3 206.9C824.3 205.9 824 205.5 824 201.6C824 197.5 823.5 196.8 815.2 188.4C810.3 183.5 801.7 175.5 795.9 170.6C789.4 165.1 784.5 160 782.7 157C781.2 154.4 777.8 150.2 775 147.6L770.1 143L765.2 146C762.5 147.6 755.9 154 750.4 160.1C740.9 170.7 736.9 174 733.5 174C731.6 174 731.6 172.6 733.6 163.8C735.2 156.7 735.1 152.3 733.1 142.8C731.6 135.7 731.5 116.3 733 114.5C733.7 113.6 736.4 111.6 739 109.9C743.7 106.9 743.8 106.7 742.7 103.6C742.1 101.9 740.9 99.9 739.9 99.2C738.4 98.2 738.3 97.4 739.1 95.3C740.6 91.2 738 89 731.3 89H726L714.3 77.9C701.9 66.2 685.4 47.5 676.5 35C673.6 30.9 669.8 26.2 668.1 24.6C663.9 20.6 663.7 15.1 667.8 12.1C673.7 7.59998 673.6 7.69998 669.6 5.99998C667.5 5.19998 665.3 3.39998 664.6 2.19998L663.4 -0.100025L661.5 1.99998ZM660.8 164.7C659.8 164.9 658 164.9 656.8 164.7C655.5 164.5 656.3 164.3 658.5 164.3C660.7 164.2 661.7 164.4 660.8 164.7ZM632.8 165.7C631.8 165.9 630 165.9 628.8 165.7C627.5 165.5 628.3 165.3 630.5 165.3C632.7 165.2 633.7 165.4 632.8 165.7ZM687.3 165.7C686 165.9 684 165.9 682.8 165.7C681.5 165.5 682.5 165.3 685 165.3C687.5 165.3 688.5 165.5 687.3 165.7ZM620.7 166.6C620.4 166.9 619.5 167 618.8 166.7C618 166.4 618.3 166.1 619.4 166.1C620.5 166 621.1 166.3 620.7 166.6ZM698.3 166.7C697.6 166.9 696.2 166.9 695.3 166.7C694.3 166.4 694.9 166.2 696.5 166.2C698.2 166.2 698.9 166.4 698.3 166.7ZM647.3 364.7C646.6 364.9 645.4 364.9 644.8 364.7C644.1 364.4 644.6 364.2 646 364.2C647.4 364.2 647.9 364.4 647.3 364.7ZM638.7 366.6C638.4 366.9 637.5 367 636.8 366.7C636 366.4 636.3 366.1 637.4 366.1C638.5 366 639.1 366.3 638.7 366.6ZM1228 434.5C1229.3 435.9 1230.1 437 1229.8 437C1229.6 437 1228.3 435.9 1227 434.5C1225.7 433.1 1224.9 432 1225.2 432C1225.4 432 1226.7 433.1 1228 434.5ZM455.7 566.2C455.4 567 455.1 566.7 455.1 565.6C455 564.5 455.3 563.9 455.6 564.3C455.9 564.6 456 565.5 455.7 566.2ZM351.3 573C351.6 574.1 351.4 574.8 350.9 574.4C350.4 574.1 350 573.2 350 572.4C350 570.4 350.7 570.7 351.3 573ZM454.1 584.3C453.1 585.2 453 585.1 453.6 583.7C453.9 582.7 454.5 582.2 454.8 582.5C455.1 582.8 454.8 583.6 454.1 584.3ZM1258 590.5C1261.5 594.1 1264.2 597 1263.9 597C1263.7 597 1260.5 594.1 1257 590.5C1253.5 586.9 1250.8 584 1251.1 584C1251.3 584 1254.5 586.9 1258 590.5ZM444 593C443.4 594.1 442.7 595 442.4 595C442.2 595 442.4 594.1 443 593C443.6 591.9 444.3 591 444.6 591C444.8 591 444.6 591.9 444 593ZM599 592.4C599 592.6 598.2 593.4 597.3 594.1C595.7 595.4 595.6 595.3 596.9 593.7C598.2 592.1 599 591.6 599 592.4ZM439 601C438.4 602.1 437.7 603 437.4 603C437.2 603 437.4 602.1 438 601C438.6 599.9 439.3 599 439.6 599C439.8 599 439.6 599.9 439 601ZM436 606C435.4 607.1 434.7 608 434.4 608C434.2 608 434.4 607.1 435 606C435.6 604.9 436.3 604 436.6 604C436.8 604 436.6 604.9 436 606ZM423.8 624.6C422 627.1 420.1 629.4 419.5 629.8C419 630.1 419.8 628.6 421.4 626.4C425.9 620.4 426.2 620 426.7 620C426.9 620 425.6 622.1 423.8 624.6ZM1065.5 625C1065.8 625.5 1065.7 626 1065.1 626C1064.6 626 1063.8 625.5 1063.5 625C1063.2 624.4 1063.3 624 1063.9 624C1064.4 624 1065.2 624.4 1065.5 625ZM944.3 630.6C941.2 635.3 938.7 632.9 941.2 627.5C942.2 625.2 942.5 625.1 944.1 626.6C945.8 628.1 945.8 628.4 944.3 630.6ZM1083.5 626C1083.8 626.5 1083.6 627 1083.1 627C1082.5 627 1082 626.5 1082 626C1082 625.4 1082.2 625 1082.4 625C1082.7 625 1083.2 625.4 1083.5 626ZM939.7 628.7C939.4 629 938.6 628.9 938 628.5C937.1 627.9 937.1 627.5 938.1 626.9C939.5 626.1 940.8 627.6 939.7 628.7ZM952.3 627.9C952 629.1 952.5 629.9 953.8 630.2C954.8 630.5 955.9 631.7 956.2 632.8C956.7 634.6 956.5 634.7 954.4 633.8C953.1 633.2 952 632.1 952 631.4C952 630.7 951 629.6 949.9 628.9C948.2 628 948 627.6 949.1 626.9C951.4 625.5 952.8 625.9 952.3 627.9ZM1089.5 631C1089.8 631.6 1089.4 632 1088.6 632C1087.8 632 1086.6 631.1 1086 629.9C1084.9 628 1085 627.9 1086.9 628.9C1088 629.5 1089.2 630.5 1089.5 631ZM1097 629C1097 629.5 1096.6 630 1096 630C1095.5 630 1095 629.5 1095 629C1095 628.4 1095.5 628 1096 628C1096.6 628 1097 628.4 1097 629ZM892 632.2C892 632.7 891.6 633 891 633C890.5 633 890 632 890 630.7C890 628.9 890.2 628.8 891 630C891.5 630.8 892 631.8 892 632.2ZM415.8 637.5C414.6 639.9 413.5 641.8 413.2 641.6C412.8 641.1 416.8 633 417.5 633C417.8 633 417 635 415.8 637.5ZM880.5 635C881.6 636.7 880 638.2 878.4 636.9C877.7 636.3 877.3 635.4 877.6 634.9C878.3 633.7 879.7 633.8 880.5 635ZM944 637.1C944 639.5 941.7 639.2 941.2 636.7C941 635.7 941.5 635 942.4 635C943.4 635 944 635.9 944 637.1ZM1055 636.8C1055 637.9 1052.8 640 1051.8 640C1051.3 640 1051.4 639.1 1052 638C1053.1 636 1055 635.2 1055 636.8ZM1104.8 636.8C1106.3 637.8 1105.4 641 1103.6 641C1103 641 1101.4 640.3 1100.1 639.4C1098.3 638.1 1098.1 637.6 1099.1 636.9C1100.9 635.8 1103.1 635.8 1104.8 636.8ZM1155 639C1155 639.5 1154.3 640 1153.4 640C1152.6 640 1152.2 639.5 1152.5 639C1152.8 638.4 1153.5 638 1154.1 638C1154.6 638 1155 638.4 1155 639ZM1177.2 642.4C1178.6 643.2 1181.4 644.3 1183.4 645C1189.1 646.8 1187.6 648 1179.6 648C1171.3 648 1169 646.7 1171 643.1C1172.3 640.6 1173.5 640.5 1177.2 642.4ZM1053 645C1053 645.5 1052.5 646 1051.9 646C1051.4 646 1051.2 645.5 1051.5 645C1051.8 644.4 1052.3 644 1052.6 644C1052.8 644 1053 644.4 1053 645ZM1143 646C1143 646.5 1142.6 647 1142 647C1141.5 647 1141 646.5 1141 646C1141 645.4 1141.5 645 1142 645C1142.6 645 1143 645.4 1143 646ZM410.1 649.7C408.9 651.7 408.7 651.1 409.6 648.5C410 647.6 410.5 647.1 410.7 647.4C411 647.6 410.7 648.7 410.1 649.7ZM1206 652C1206.8 652.5 1207.1 653.2 1206.7 653.6C1206.3 654 1205.2 653.6 1204.3 652.7C1202.5 650.9 1203.5 650.4 1206 652ZM408.1 654.7C406.9 656.7 406.7 656.1 407.6 653.5C408 652.6 408.5 652.1 408.7 652.4C409 652.6 408.7 653.7 408.1 654.7ZM1213 655.1C1213 655.7 1212.6 655.8 1212 655.5C1211.5 655.2 1211 654.4 1211 653.9C1211 653.3 1211.5 653.2 1212 653.5C1212.6 653.8 1213 654.6 1213 655.1ZM1249.4 667.6C1249.7 668.4 1249.6 669 1249.2 669C1248.2 669 1246 666.8 1246 665.8C1246 664.6 1248.8 666 1249.4 667.6ZM1216.5 669C1216.8 669.5 1216.6 670 1216.1 670C1215.5 670 1215 669.5 1215 669C1215 668.4 1215.2 668 1215.4 668C1215.7 668 1216.2 668.4 1216.5 669ZM400.7 682.2C400.4 683 400.1 682.7 400.1 681.6C400 680.5 400.3 679.9 400.6 680.3C400.9 680.6 401 681.5 400.7 682.2ZM399.7 686.2C399.4 687 399.1 686.7 399.1 685.6C399 684.5 399.3 683.9 399.6 684.3C399.9 684.6 400 685.5 399.7 686.2ZM398.7 692.2C398.4 693 398.1 692.7 398.1 691.6C398 690.5 398.3 689.9 398.6 690.3C398.9 690.6 399 691.5 398.7 692.2ZM397.7 696.2C397.4 697 397.1 696.7 397.1 695.6C397 694.5 397.3 693.9 397.6 694.3C397.9 694.6 398 695.5 397.7 696.2ZM165.3 696.7C164.6 696.9 163.4 696.9 162.8 696.7C162.1 696.4 162.6 696.2 164 696.2C165.4 696.2 165.9 696.4 165.3 696.7ZM167.5 703C168.5 704.1 169.1 705 168.8 705C168.5 705 167.5 704.1 166.5 703C165.5 701.9 164.9 701 165.2 701C165.5 701 166.5 701.9 167.5 703ZM161.8 708.7C160.2 708.9 157.8 708.9 156.3 708.7C154.7 708.5 156 708.3 159 708.3C162 708.3 163.3 708.5 161.8 708.7ZM153 712C153.8 712.5 154.1 713 153.5 713C153 713 151.8 712.5 151 712C150.2 711.5 150 711 150.5 711C151.1 711 152.2 711.5 153 712ZM388.7 740.2C388.4 740.9 388.2 740.4 388.2 739C388.2 737.6 388.4 737.1 388.7 737.7C388.9 738.4 388.9 739.6 388.7 740.2ZM99.9999 752.7C99.9999 753.5 99.0999 752.7 94.9999 748.2L90.4999 743.5L95.2999 748C97.8999 750.4 99.9999 752.5 99.9999 752.7ZM84.4999 748C84.1999 748.5 81.9999 748.9 79.6999 748.8L75.4999 748.7L79.9999 748C82.4999 747.6 84.5999 747.2 84.7999 747.2C84.9999 747.1 84.7999 747.4 84.4999 748ZM50.6999 766.2C50.3999 767 50.0999 766.7 50.0999 765.6C49.9999 764.5 50.2999 763.9 50.5999 764.3C50.8999 764.6 50.9999 765.5 50.6999 766.2ZM351 770.4C351 770.6 350.2 771.4 349.3 772.1C347.7 773.4 347.6 773.3 348.9 771.7C350.2 770.1 351 769.6 351 770.4ZM165.4 825.5C164.5 826.8 162.3 828.5 160.5 829.2C158.6 829.8 157.3 830.8 157.6 831.2C158.8 833.2 155.6 835 151.1 835C144.6 835 143.4 834 145.4 830.3C147 827.1 148.7 826 152.3 826C153.5 825.9 155.6 825.3 157 824.5C158.4 823.7 161.2 823.1 163.3 823H167L165.4 825.5ZM167 829C167 829.5 166.3 830 165.5 830C164.7 830 164 829.5 164 829C164 828.4 164.7 828 165.5 828C166.3 828 167 828.4 167 829Z" fill="white"/>
<path d="M991 627.4C991 627.6 992.2 628.6 993.8 629.5L996.5 631.3L994.6 629.2C992.9 627.2 991 626.3 991 627.4Z" fill="white"/>
<path d="M910.5 630.7C910.9 631.7 911.2 633.5 911.1 634.7C911 636.6 911.5 637 914 637C917.5 637 917.8 636 915 634.2C913.9 633.5 913 632.4 913 631.6C913 630.8 912.3 629.9 911.4 629.6C910.1 629.1 909.9 629.4 910.5 630.7Z" fill="white"/>
<path d="M999.3 631.2C998.7 631.9 997.9 634.2 997.6 636.4C996.9 640.1 997 640.2 999.1 639.7C1000.4 639.3 1002.1 639.7 1003 640.4C1003.8 641.1 1006.7 642 1009.5 642.4C1014.2 643 1014.4 642.9 1012.3 641.5C1011 640.6 1009.5 639 1008.9 637.9C1008 636 1008.1 635.9 1009.9 636.5C1011.1 636.8 1013 636.8 1014.3 636.4C1016.4 635.7 1016.4 635.6 1013.5 634.4C1011.9 633.8 1009.1 633.4 1007.4 633.7C1004.8 634.1 1004.1 633.8 1003.5 632.1C1002.8 629.8 1000.8 629.3 999.3 631.2Z" fill="white"/>
<path d="M921 634.9C921 636.5 924.4 639.4 924.8 638.1C925 637.5 925.9 637 926.7 637C928 637 928 636.7 927 635.5C925.6 633.9 921 633.4 921 634.9Z" fill="white"/>
<path d="M849.6 640.9C849.2 641.6 849.1 642.4 849.4 642.7C850.3 643.6 851.3 642.3 850.8 640.9C850.4 639.8 850.2 639.8 849.6 640.9Z" fill="white"/>
<path d="M1016.7 641.7C1015.5 642.8 1015.9 644 1017.5 644C1018.3 644 1019 643.3 1019 642.5C1019 640.9 1017.8 640.5 1016.7 641.7Z" fill="white"/>
<path d="M1020.7 645.1C1021.4 645.8 1022.2 646.1 1022.5 645.8C1022.8 645.5 1022.3 644.9 1021.3 644.6C1019.9 644 1019.8 644.1 1020.7 645.1Z" fill="white"/>
<path d="M1061.6 645.5C1059.1 647.4 1059.8 648 1064.9 648.7C1069.4 649.3 1070.1 648.3 1067.2 645.7C1065 643.7 1064.1 643.6 1061.6 645.5Z" fill="white"/>
<path d="M1026 646C1026 646.5 1026.5 647 1027.1 647C1027.6 647 1027.8 646.5 1027.5 646C1027.2 645.4 1026.7 645 1026.4 645C1026.2 645 1026 645.4 1026 646Z" fill="white"/>
<path d="M836.5 648C836.8 648.5 837.3 649 837.6 649C837.8 649 838 648.5 838 648C838 647.4 837.5 647 836.9 647C836.4 647 836.2 647.4 836.5 648Z" fill="white"/>
<path d="M839 651C839 651.5 839.5 652 840 652C840.6 652 841 651.5 841 651C841 650.4 840.6 650 840 650C839.5 650 839 650.4 839 651Z" fill="white"/>
<path d="M764.4 661.7V665L767.7 661.8C769.5 660 771 658.6 771 658.5C771 658.4 769.5 658.4 767.7 658.4C764.6 658.4 764.4 658.6 764.4 661.7Z" fill="white"/>
<path d="M797.5 659C797.8 659.5 798.3 660 798.6 660C798.8 660 799 659.5 799 659C799 658.4 798.5 658 797.9 658C797.4 658 797.2 658.4 797.5 659Z" fill="white"/>
<path d="M778 660C776.7 660.8 776.7 661 778.2 661C779.1 661 780.2 660.5 780.5 660C781.3 658.7 780 658.7 778 660Z" fill="white"/>
<path d="M736.5 667.9C736.2 669 735.2 670.4 734.4 671.1C733.1 672.1 732.7 672.1 732 671C731.5 670.2 730.8 669.9 730.3 670.3C729.9 670.8 730.2 671.5 731 672C732.3 672.8 732.2 673.2 730.5 674.4C728.8 675.7 728.8 675.9 730.2 676C731.1 676 732 675.5 732.2 674.9C732.5 674 733.2 674 734.9 674.9C736.1 675.6 737.3 676 737.4 675.8C742.2 669.1 742.3 668.9 740.4 667.5C737.9 665.6 737.2 665.7 736.5 667.9Z" fill="white"/>
<path d="M754.6 668.9C750.7 670.5 748.2 672 748.8 672.4C749.5 672.8 750.8 672.7 751.7 672.1C753 671.4 754 671.6 755.1 672.6C756.6 674 757 673.8 758.7 671.3C761.1 667.9 762.2 666 761.8 666.1C761.6 666.1 758.4 667.4 754.6 668.9Z" fill="white"/>
<path d="M782.7 666.7C782 667.8 783.7 670.7 784.5 669.8C784.9 669.4 784.8 668.4 784.2 667.4C783.7 666.5 783 666.2 782.7 666.7Z" fill="white"/>
<path d="M760.5 678C760.8 678.5 761.3 679 761.6 679C761.8 679 762 678.5 762 678C762 677.4 761.5 677 760.9 677C760.4 677 760.2 677.4 760.5 678Z" fill="white"/>
<path d="M705.5 691C705.8 691.5 706.3 692 706.6 692C706.8 692 707 691.5 707 691C707 690.4 706.5 690 705.9 690C705.4 690 705.2 690.4 705.5 691Z" fill="white"/>
<path d="M503 738.1C503 738.6 503.5 738.8 504 738.5C504.6 738.2 505 737.7 505 737.4C505 737.2 504.6 737 504 737C503.5 737 503 737.5 503 738.1Z" fill="white"/>
<path d="M327.5 789.9C324.4 790.3 323 790.8 323.8 791.3C324.5 791.8 326 791.8 327.2 791.4C328.7 790.9 329.8 791.4 331.2 793.1L333.1 795.5L332.5 793.2C332 791.4 332.3 791 334 791C335.2 791 335.8 790.5 335.5 790C335.2 789.4 334.3 789.1 333.7 789.2C333 789.2 330.3 789.6 327.5 789.9Z" fill="white"/>
<path d="M276.6 804.9C276.2 805.6 276.1 806.4 276.4 806.7C277.3 807.6 278.3 806.3 277.8 804.9C277.4 803.8 277.2 803.8 276.6 804.9Z" fill="white"/>
<path d="M126 836.2C125 838.3 124.2 838.6 120.2 838.6C116.9 838.5 115.5 838.9 115.5 839.8C115.5 841.2 123 842.3 131.8 842.3C134.1 842.3 136 842.6 136 843.1C136 843.6 136.5 844 137.1 844C137.9 844 137.9 843.6 137.1 842.6C136.2 841.5 136.2 840.6 136.9 839.2C137.7 837.7 137.5 836.9 136 835.5C134.2 833.9 134 833.9 134 835.3C134 838 132 838.3 129.5 836L127.1 833.7L126 836.2Z" fill="white"/>
<path d="M72.1999 843.2C72.6999 844.7 74.9999 845.5 74.9999 844.2C74.9999 843.7 74.2999 842.9 73.3999 842.6C72.3999 842.2 71.9999 842.5 72.1999 843.2Z" fill="white"/>
<path d="M81 846C81 846.5 81.5 847 82 847C82.6 847 83 846.5 83 846C83 845.4 82.6 845 82 845C81.5 845 81 845.4 81 846Z" fill="white"/>
<path d="M105.5 849C105.8 849.5 106.7 849.7 107.5 849.3C109.6 848.6 109.4 848 106.9 848C105.8 848 105.1 848.4 105.5 849Z" fill="white"/>
<path d="M3.49993 855.1C2.59993 856.5 3.29993 857.1 4.89993 856.1C5.69993 855.5 5.79993 855 5.19993 854.6C4.59993 854.3 3.79993 854.5 3.49993 855.1Z" fill="white"/>
</g>
<defs>
<clipPath id="clip0">
<rect width="1280" height="857" fill="white"/>
</clipPath>
</defs>
</svg>
