<svg width="200" height="243" viewBox="0 0 200 243" fill="none" xmlns="http://www.w3.org/2000/svg">
<path d="M96.5952 0.189497C90.6791 1.16143 85.2279 4.39414 81.6782 9.06362C80.1781 11.0497 78.4033 14.705 77.7483 17.2194C77.2623 19.0365 77.1989 19.776 77.1778 22.6072C77.1567 26.3048 77.4313 27.9317 78.5934 31.0588C79.8823 34.4817 82.1431 37.6932 85.0166 40.1653L86.3477 41.3063V49.0606V56.836H87.1929H88.038V61.6956V66.5553H87.1929C86.4322 66.5553 86.3477 66.5975 86.3477 67.0835V67.6117H68.029H49.6891L48.7383 66.4074C44.3435 60.8716 35.7229 61.4632 32.0465 67.5483C28.3278 73.6757 32.0676 81.6202 39.2726 82.8245C42.7166 83.4161 46.8579 81.7892 48.7806 79.1058L49.4356 78.1762H67.9022C86.0097 78.1762 86.3477 78.1762 86.3477 78.5776C86.3477 78.9157 86.5168 79.0002 87.1506 79.0636L87.9324 79.127L87.9958 91.5085L88.038 103.89L85.8406 105.517C84.6152 106.425 83.0939 107.714 82.4811 108.369C81.8473 109.024 80.9387 109.869 80.4528 110.25C79.2907 111.179 77.875 113.335 75.4241 117.856C72.9309 122.441 72.4027 123.624 72.4027 124.533C72.4027 124.934 72.2759 125.822 72.1069 126.498C71.0082 131.104 70.8603 132.097 71.0082 134.041C71.0715 135.097 71.2194 137.4 71.3251 139.154C71.5153 142.049 71.6209 142.598 72.4027 144.965C72.8675 146.401 73.5859 148.916 73.9873 150.521C74.7268 153.479 75.3818 154.916 76.1425 155.17C76.3538 155.254 76.8397 155.761 77.22 156.332C77.6004 156.902 78.2976 157.748 78.7413 158.212C79.2907 158.762 79.671 159.417 79.84 160.051C80.0513 160.811 80.326 161.234 81.0232 161.804C81.6149 162.29 82.2065 163.093 82.6924 164.044C83.4953 165.65 85.2702 167.53 86.6013 168.206C87.869 168.861 87.869 168.713 87.1718 173.045C86.6224 176.594 85.6293 180.841 83.3685 189.314C81.5092 196.244 80.6007 200.238 80.3049 202.667C80.2415 203.344 80.157 203.893 80.1358 203.893C80.1358 203.893 79.4386 203.618 78.5934 203.28C77.7483 202.921 76.1002 202.414 74.8959 202.118C68.0501 200.428 57.8026 196.075 50.8301 191.871C44.9563 188.363 40.5614 184.898 35.9554 180.186C32.617 176.785 30.8422 174.629 28.5602 171.249C24.2288 164.762 21.7568 158.783 20.1087 150.733C20.0242 150.331 20.151 150.289 23.0456 150.057C24.7148 149.93 26.4051 149.697 26.8066 149.528C28.2433 148.937 28.8349 147.12 28.4335 144.542C27.9475 141.225 25.3064 134.949 22.0103 129.181C19.3058 124.47 14.8054 118.11 14.1926 118.11C13.77 118.11 11.9318 120.265 10.3049 122.652C6.058 128.907 2.80415 135.858 0.627878 143.359C-0.428565 147.035 -0.196148 148.324 1.66319 149.296C2.50835 149.74 5.06494 150.226 6.54396 150.226C7.26234 150.226 7.98073 150.31 8.12863 150.416C8.29766 150.521 8.59346 151.62 8.82588 152.994C12.2276 173.277 24.2288 193.878 41.0263 208.309C53.1754 218.725 67.1838 226.459 84.7419 232.417C90.4045 234.319 91.9257 234.974 93.9541 236.326C95.6022 237.424 96.8276 238.713 97.7784 240.361C98.6025 241.84 99.342 242.411 100.166 242.263C101.011 242.094 101.18 241.904 102.152 240.277C103.61 237.826 106.124 235.798 109.463 234.382C110.16 234.086 112.759 233.178 115.189 232.375C139.783 224.198 158.82 211.711 172.279 194.871C182.421 182.172 189.266 166.453 191.253 151.282L191.379 150.31L194.443 150.078C198.965 149.719 199.768 149.169 199.979 146.444C200.106 144.521 199.683 142.767 198.183 138.922C196.218 133.935 193.725 129.266 190.196 123.92C188.104 120.793 186.435 118.617 185.801 118.237C185.463 118.046 185.273 118.152 184.576 118.955C182.104 121.744 178.977 126.709 176.547 131.738C173.948 137.083 171.518 144.141 171.455 146.444C171.413 147.606 171.962 148.683 172.892 149.211C173.694 149.676 176.272 150.226 177.709 150.226C178.343 150.226 179.146 150.289 179.526 150.352L180.202 150.5L180.075 151.599C179.885 153.332 178.618 158.128 177.73 160.473C176.441 163.981 174.159 168.375 171.941 171.693C166.215 180.229 158.545 187.159 148.488 192.885L145.868 194.364L144.875 192.314C144.325 191.195 143.649 189.969 143.353 189.631C143.058 189.272 142.698 188.617 142.572 188.152C142.445 187.687 142.086 186.863 141.748 186.356C140.818 184.898 135.177 179.003 134.564 178.855C133.993 178.707 132.789 177.778 130.423 175.623C129.324 174.608 128.31 173.974 126.197 172.939C123.175 171.46 121.57 170.594 120.809 170.045C120.534 169.854 119.562 169.39 118.675 169.03C117.28 168.46 116.816 168.143 115.569 166.833C114.766 165.988 113.794 165.164 113.435 164.995L112.759 164.699V137.189C112.759 118.892 112.822 109.658 112.97 109.658C113.097 109.658 113.815 109.151 114.618 108.538C115.4 107.947 116.647 106.954 117.407 106.383C119.541 104.714 120.577 103.721 120.872 103.003C121.02 102.643 121.992 101.481 123.027 100.425C125.584 97.8049 126.957 96.1357 128.225 94.0651C128.817 93.1143 129.366 92.3325 129.472 92.3325C129.768 92.3325 131.606 89.6914 132.409 88.1067C132.852 87.2405 133.317 86.0995 133.465 85.5713C133.613 85.0431 134.014 84.2824 134.331 83.8387C134.986 83.0147 135.198 82.571 136.233 79.9087L136.93 78.1762H143.248H149.565L150.896 79.6129C156.411 85.5501 165.877 83.2682 168.201 75.4505C169.828 69.9359 165.982 63.8085 160.193 62.731C156.643 62.0548 152.566 63.6184 150.368 66.4496L149.481 67.6117H144.558H139.656L139.529 66.4285C139.466 65.7735 139.508 64.9918 139.635 64.696C139.909 64.0198 139.973 57.4065 139.74 55.9486C139.635 55.3992 139.339 54.6175 139.043 54.1949C138.621 53.5822 138.536 53.1807 138.536 51.9975C138.536 50.3283 138.282 49.4198 137.501 48.3845C137.205 47.983 136.846 47.2224 136.719 46.6941C135.705 42.6163 135.324 41.6866 134.437 41.2218C134.162 41.0739 133.845 40.6513 133.74 40.2921C133.444 39.3202 131.204 35.9607 130.592 35.5804C130.317 35.3902 130.084 35.1155 130.084 34.9676C130.084 34.5873 128.077 31.6504 127.19 30.7418C126.767 30.2981 126.176 29.8756 125.838 29.7488C125.521 29.6431 125.161 29.284 125.014 28.9248C124.866 28.5867 124.253 27.8472 123.661 27.2978L122.584 26.3048L122.753 24.6145C122.943 22.6072 122.626 19.2689 122.056 17.0503C120.344 10.5004 115.717 5.00688 109.463 2.0911C106.631 0.738848 104.096 0.189497 100.61 0.104981C98.9828 0.0627236 97.1868 0.104981 96.5952 0.189497ZM103.695 8.97911C107.54 9.97217 111.111 12.9091 112.822 16.501C113.688 18.2969 113.984 19.2689 114.322 21.255L114.428 21.91L112.062 21.8255C110.752 21.7832 109.42 21.6564 109.082 21.5508C106.885 20.8113 101.899 21.8043 100.631 23.22C100.398 23.4735 100.103 23.6637 99.9336 23.6637C98.7926 23.6637 96.2572 25.7766 95.6656 27.2133C95.4965 27.5936 95.0951 28.2064 94.7781 28.5444C94.1654 29.1994 93.4048 31.2701 93.1724 32.8547C93.109 33.3196 92.8343 33.9746 92.5596 34.3126L92.0314 34.9042L91.2074 34.3338C89.4537 33.1083 87.4042 30.3827 86.5379 28.1219C84.4884 22.6917 85.735 16.8813 89.834 12.7612C91.2708 11.3244 91.8835 10.8807 93.5527 10.0778C94.6514 9.54959 96.067 9.02137 96.7009 8.89459C97.3347 8.76782 98.0531 8.61992 98.2855 8.57766C99.0884 8.3875 102.321 8.64105 103.695 8.97911ZM117.914 41.4119C119.71 42.2571 121.612 44.1376 121.633 45.0672C121.633 45.849 123.429 49.1451 124.063 49.5677C124.654 49.948 125.33 51.4481 125.774 53.3709C125.943 54.1526 126.197 54.9978 126.345 55.2302C126.471 55.4838 126.577 56.7726 126.598 58.315C126.619 60.6392 126.662 61.0829 127.105 61.9703C127.76 63.3014 127.634 64.5692 126.746 65.8158C126.408 66.3017 126.049 66.9145 125.964 67.168C125.838 67.6117 125.753 67.6117 119.816 67.6117H113.815V67.0835C113.815 66.6609 113.71 66.5553 113.287 66.5553H112.759V61.6956V56.836H113.287H113.815V48.9338V41.0316L114.618 40.3977L115.4 39.7427L115.928 40.2498C116.224 40.5245 117.111 41.0527 117.914 41.4119ZM121.844 78.7044C121.844 79.296 120.724 81.599 120.238 82.0005C120.069 82.1273 119.943 82.4231 119.943 82.6132C119.943 82.8245 119.689 83.2048 119.393 83.4373C119.076 83.6908 118.886 83.881 118.971 83.881C119.034 83.881 118.759 84.3247 118.358 84.8529C117.935 85.3811 117.365 86.3319 117.09 86.9447C116.393 88.4237 115.083 89.8816 113.963 90.4098C113.456 90.6633 112.991 90.8535 112.907 90.8535C112.822 90.8535 112.759 88.1913 112.759 84.9374V79.0213H113.287C113.667 79.0213 113.815 78.9157 113.815 78.5987C113.815 78.1973 113.963 78.1762 117.83 78.1762H121.844V78.7044ZM87.9958 141.711C87.9324 146.697 87.9113 146.908 87.5943 146.211C87.4042 145.81 87.1929 145.091 87.1084 144.626C87.0238 144.162 86.6858 143.295 86.3477 142.683C85.7139 141.563 85.6716 141.246 85.4603 134.696C85.4392 134.337 85.6927 133.449 86.0097 132.731C86.3266 131.991 86.728 130.555 86.9182 129.562C87.0872 128.547 87.383 127.385 87.5943 126.984C87.9113 126.265 87.9324 126.435 87.9958 131.358C88.0169 134.168 88.0169 138.816 87.9958 141.711ZM116.879 184.814C117.344 185.131 118.506 185.976 119.478 186.715C120.429 187.455 121.379 188.046 121.57 188.046C121.76 188.046 122.858 189.039 124.042 190.223C125.225 191.427 126.577 192.674 127.084 192.99C127.972 193.54 128.521 194.279 129.725 196.498C130.042 197.089 130.592 197.744 130.93 197.935C131.648 198.357 132.261 200.005 131.796 200.301C131.648 200.386 130.19 200.85 128.542 201.336C125.838 202.139 120.851 203.787 119.9 204.21C119.562 204.337 119.52 204.231 119.52 203.47C119.52 201.336 118.506 195.949 116.583 187.983C116.097 186.018 115.717 184.391 115.717 184.328C115.717 184.116 116.097 184.285 116.879 184.814Z" fill="white"/>
</svg>
